<svg xmlns="http://www.w3.org/2000/svg" width="28" height="27" viewBox="0 0 28 27">
    <path fill="#000" fill-rule="nonzero" d="M7 7a2.8 2.8 0 1 1 0-5.6A2.8 2.8 0 0 1 7 7zm5.81 5.6H28v11.2c0 1.54-1.26 2.8-2.8 2.8H2.8c-1.54 0-2.8-1.26-2.8-2.8V12.6h4.2v-1.05A3.155 3.155 0 0 1 7.35 8.4h.042c.476 0 .938.126 1.344.322.364.168.7.406.966.7l1.96 2.17c.322.364.714.7 1.148 1.008zm10.5-8.596c1.442 1.4 2.114 3.29 1.82 5.194l-.084.602h-2.674l.154-.826c.21-1.106-.14-2.212-.938-3.08l-.098-.084c-1.442-1.414-2.1-3.304-1.82-5.208L19.754 0H22.4l-.126.826c-.21 1.106.14 2.212.938 3.08l.098.098zm-5.6 0c1.442 1.4 2.114 3.29 1.82 5.194l-.084.602h-2.674l.154-.826c.21-1.106-.14-2.212-.938-3.08l-.098-.084c-1.442-1.414-2.1-3.304-1.82-5.208L14.154 0H16.8l-.126.826c-.21 1.106.14 2.212.938 3.08l.098.098z"/>
</svg>
