<svg xmlns="http://www.w3.org/2000/svg" width="127" height="44" viewBox="0 0 127 44">
    <g fill="#FFF" fill-rule="evenodd">
        <path d="M58.607 27.377l-1.517-.11c-1.45 0-2.38.456-2.79 1.368V38h-4.607V23.207h4.32l.15 1.9c.776-1.449 1.856-2.173 3.241-2.173.492 0 .92.054 1.285.164l-.082 4.279zm9.57 10.896c-2.27 0-4.106-.676-5.51-2.03-1.403-1.353-2.105-3.115-2.105-5.284v-.383c0-1.513.28-2.848.84-4.006.561-1.157 1.38-2.053 2.455-2.686 1.075-.634 2.351-.95 3.828-.95 2.078 0 3.719.644 4.922 1.934 1.203 1.29 1.804 3.088 1.804 5.394v1.79h-9.16c.164.83.524 1.482 1.08 1.956s1.276.71 2.16.71c1.459 0 2.598-.51 3.418-1.53l2.106 2.488c-.574.793-1.388 1.424-2.44 1.893a8.247 8.247 0 0 1-3.398.704zm-.52-11.785c-1.349 0-2.15.894-2.406 2.68H69.9v-.355c.018-.739-.169-1.31-.56-1.716-.393-.406-.953-.609-1.683-.609zm13.85-3.281l.15 1.736c1.02-1.34 2.429-2.01 4.224-2.01 1.54 0 2.692.46 3.453 1.381.76.921 1.155 2.306 1.182 4.157V38h-4.62v-9.338c0-.747-.151-1.296-.452-1.647-.3-.351-.848-.527-1.64-.527-.903 0-1.573.356-2.01 1.067V38h-4.608V23.207h4.32zm17.936-3.678v3.678h2.434v3.2h-2.434v6.767c0 .556.1.943.301 1.162.2.219.597.328 1.19.328.455 0 .838-.027 1.148-.082v3.295a8.503 8.503 0 0 1-2.598.396c-1.586 0-2.757-.373-3.513-1.12-.757-.748-1.135-1.883-1.135-3.405v-7.342h-1.887v-3.199h1.887v-3.678h4.607zM109.56 38h-4.621V17h4.62v21zm9.761-6.453l2.461-8.34h4.936l-6.03 17.268-.26.629c-.856 1.914-2.37 2.87-4.539 2.87a7.195 7.195 0 0 1-1.9-.273v-3.295h.602c.647 0 1.141-.093 1.483-.28.342-.187.595-.522.759-1.005l.369-.984-5.14-14.93h4.921l2.338 8.34z"/>
        <path fill-rule="nonzero" d="M25.333 19V6.333L19 0l-6.333 6.333v4.223H0V40.11h38V19H25.333zM8.444 35.889H4.222v-4.222h4.222v4.222zm0-8.445H4.222v-4.222h4.222v4.222zm0-8.444H4.222v-4.222h4.222V19zm12.667 16.889H16.89v-4.222h4.222v4.222zm0-8.445H16.89v-4.222h4.222v4.222zm0-8.444H16.89v-4.222h4.222V19zm0-8.444H16.89V6.333h4.222v4.223zm12.667 25.333h-4.222v-4.222h4.222v4.222zm0-8.445h-4.222v-4.222h4.222v4.222zm8.5-16.472l.028-4.659-2.923.894-.473 1.307-.797.244-.037-2.023-1.1-1.698.797-.244 1.122.82 2.924-.894-2.63-3.847 1.064-.325 3.958 3.44 2.924-.894a.833.833 0 1 1 .487 1.595l-2.924.894-1.357 5.065-1.064.325z"/>
    </g>
</svg>